# File produced by Open Asset Import Library (http://www.assimp.sf.net)
# (assimp v3.1.193236683)

mtllib Wall.mtl

# 56 vertex positions
v  -25 -70 -100
v  -20 -70 -100
v  -20 -70 -71.4286
v  -40 -70 -71.4286
v  -40 -70 -85
v  20 70 88
v  20 70 71.4286
v  -20 70 71.4286
v  -20 70 88
v  -25 -70 100
v  -20 -70 100
v  -20 58 100
v  -25 58 100
v  -40 58 -71.4286
v  -40 58 -85
v  -20 70 -71.4286
v  -20 70 -88
v  -20.0294 70 -88
v  -28 70 -80.0294
v  -28 70 -71.4286
v  20 58 -100
v  25 58 -100
v  25 -70 -100
v  20 -70 -100
v  40 -70 -85
v  40 -70 -71.4286
v  20 -70 -71.4286
v  20 -70 100
v  25 -70 100
v  25 58 100
v  20 58 100
v  -28 70 71.4286
v  -28 70 80.0294
v  -20.0294 70 88
v  28 70 80.0295
v  28 70 71.4286
v  20.0294 70 88
v  40 58 -71.4285
v  40 58 71.4286
v  40 -70 71.4286
v  -20 -70 71.4286
v  20 -70 71.4286
v  28 70 -71.4285
v  28 70 -80.0294
v  20.0294 70 -88
v  20 70 -88
v  20 70 -71.4285
v  40 -70 85
v  40 58 -84.9999
v  -40 -70 71.4286
v  -40 -70 85
v  -40 58 85
v  -40 58 71.4285
v  -20 58 -100
v  -25 58 -100
v  40 58 85.0001

# 98 UV coordinates
vt 0.0491804 0.488665 0
vt 0.0628416 0.488665 0
vt 0.0628416 0.560633 0
vt 0.00819679 0.560633 0
vt 0.00819679 0.526448 0
vt 0.827869 0.481108 0
vt 0.827869 0.439367 0
vt 0.937158 0.439367 0
vt 0.937158 0.481108 0
vt 0.385246 0.488665 0
vt 0.398907 0.488665 0
vt 0.398907 0.811083 0
vt 0.385246 0.811083 0
vt 0.39071 0.00755667 0
vt 0.39071 0.0417416 0
vt 0.0409837 0.0417417 0
vt 0.0409837 0.00755672 0
vt 0.937158 0.079525 0
vt 0.937158 0.0377834 0
vt 0.937239 0.0377834 0
vt 0.959016 0.0578603 0
vt 0.959016 0.079525 0
vt 0.743169 0.488665 0
vt 0.756831 0.488665 0
vt 0.756831 0.811083 0
vt 0.743169 0.811083 0
vt 0.172131 0.488665 0
vt 0.185792 0.488665 0
vt 0.226776 0.526448 0
vt 0.226776 0.560633 0
vt 0.172131 0.560633 0
vt 0.508197 0.488665 0
vt 0.521858 0.488665 0
vt 0.521858 0.811083 0
vt 0.508197 0.811083 0
vt 0.959016 0.439367 0
vt 0.959016 0.461031 0
vt 0.937239 0.481108 0
vt 0.806011 0.461031 0
vt 0.806011 0.439367 0
vt 0.827788 0.481108 0
vt 0.407104 0.079525 0
vt 0.756831 0.0795252 0
vt 0.756831 0.439367 0
vt 0.407104 0.439367 0
vt 0.0628415 0.920475 0
vt 0.172131 0.920475 0
vt 0.172131 0.992443 0
vt 0.0628415 0.992443 0
vt 0.806011 0.0795251 0
vt 0.806011 0.0578604 0
vt 0.827788 0.0377834 0
vt 0.827869 0.0377834 0
vt 0.827869 0.0795251 0
vt 0.226776 0.920475 0
vt 0.226776 0.95466 0
vt 0.185792 0.992443 0
vt 0.407104 0.0453401 0
vt 0.756831 0.0453402 0
vt 0.39071 0.401583 0
vt 0.39071 0.435768 0
vt 0.0409836 0.435768 0
vt 0.0409836 0.401583 0
vt 0.63388 0.488665 0
vt 0.63388 0.811083 0
vt 0.00819673 0.920475 0
vt 0.0491803 0.992443 0
vt 0.00819672 0.95466 0
vt 0.620219 0.488665 0
vt 0.620219 0.811083 0
vt 0.407104 0.00755667 0
vt 0.756831 0.00755682 0
vt 0.562842 0.488665 0
vt 0.562842 0.811083 0
vt 0.39071 0.473552 0
vt 0.0409836 0.473552 0
vt 0.579235 0.811083 0
vt 0.579235 0.488665 0
vt 0.407104 0.473552 0
vt 0.756831 0.473552 0
vt 0.827869 0.00755672 0
vt 0.937158 0.00755667 0
vt 0.827869 0.511335 0
vt 0.937158 0.511335 0
vt 0.773224 0.0795251 0
vt 0.773224 0.439367 0
vt 0.991803 0.439367 0
vt 0.991803 0.079525 0
vt 0.814208 0.00755673 0
vt 0.773224 0.0453401 0
vt 0.773224 0.473552 0
vt 0.814208 0.511335 0
vt 0.95082 0.511335 0
vt 0.991803 0.473551 0
vt 0.991803 0.04534 0
vt 0.95082 0.00755667 0
vt 0.00819672 0.423248 0
vt 0.00819672 0.401583 0

# 40 vertex normals
vn 1.62347e-07 -1 0
vn -2.24803e-08 1 0
vn -5.96047e-07 -2.22045e-13 1
vn -1 -9.31323e-08 0
vn 7.39096e-08 1 0
vn 5.96047e-07 2.91039e-07 -1
vn 0 -1 0
vn 0 -3.49246e-07 1
vn 3.69549e-07 1 0
vn 0 1 0
vn 1 -3.88578e-14 6.51926e-08
vn 0 -1 0
vn -2.95639e-07 1 0
vn 3.24695e-07 -1 0
vn 1 -1.16415e-07 0
vn -1 -6.98492e-08 0
vn 6.70552e-07 2.91038e-07 -1
vn -1.62347e-07 -1 0
vn 0 2.32831e-07 -1
vn 0.707107 1.37197e-07 -0.707106
vn 0.707106 -1.09757e-07 0.707107
vn -0.707107 5.48779e-09 0.707106
vn -0.707106 1.09757e-07 -0.707107
vn 1 1.28057e-07 3.43119e-07
vn 5.48787e-07 0.707107 -0.707107
vn -8.64888e-07 0.707107 0.707107
vn 0.707107 0.707107 1.69026e-07
vn -0.707107 0.707107 -4.60981e-08
vn 0.5 0.707107 -0.5
vn 0.5 0.707106 0.500001
vn -0.5 0.707107 0.5
vn -0.5 0.707107 -0.5
vn 0.707107 0.707107 0
vn 6.28502e-07 0.707107 -0.707106
vn 0.707106 0.707107 0
vn 0 0.707107 0.707107
vn -6.28505e-07 0.707107 0.707107
vn -0.707107 0.707107 -1.98008e-07
vn -0.707107 0.707107 0
vn 0 0.707107 -0.707107

# Mesh 'Cube_Cube' with 106 faces
g Cube_Cube
usemtl Wall
f  1/1/1 2/2/1 3/3/1
f  1/1/1 3/3/1 4/4/1
f  4/4/1 5/5/1 1/1/1
f  6/6/2 7/7/2 8/8/2
f  8/8/2 9/9/2 6/6/2
f  10/10/3 11/11/3 12/12/3
f  12/12/3 13/13/3 10/10/3
f  5/14/4 4/15/4 14/16/4
f  14/16/4 15/17/4 5/14/4
f  16/18/5 17/19/5 18/20/5
f  16/18/5 18/20/5 19/21/5
f  19/21/5 20/22/5 16/18/5
f  21/23/6 22/24/6 23/25/6
f  23/25/6 24/26/6 21/23/6
f  24/27/7 23/28/7 25/29/7
f  24/27/7 25/29/7 26/30/7
f  26/30/7 27/31/7 24/27/7
f  28/32/8 29/33/8 30/34/8
f  30/34/8 31/35/8 28/32/8
f  9/9/2 8/8/2 32/36/9
f  9/9/2 32/36/9 33/37/9
f  33/37/9 34/38/9 9/9/2
f  35/39/10 36/40/10 7/7/2
f  35/39/10 7/7/2 6/6/2
f  6/6/2 37/41/10 35/39/10
f  26/42/11 38/43/11 39/44/11
f  39/44/11 40/45/11 26/42/11
f  41/46/12 42/47/12 28/48/12
f  28/48/12 11/49/12 41/46/12
f  20/22/5 32/36/9 8/8/2
f  8/8/2 16/18/5 20/22/5
f  43/50/13 44/51/13 45/52/13
f  43/50/13 45/52/13 46/53/13
f  46/53/13 47/54/13 43/50/13
f  42/47/12 40/55/14 48/56/14
f  42/47/12 48/56/14 29/57/14
f  29/57/14 28/48/12 42/47/12
f  26/42/11 25/58/15 49/59/15
f  49/59/15 38/43/11 26/42/11
f  2/2/1 24/27/7 27/31/7
f  27/31/7 3/3/1 2/2/1
f  11/11/3 28/32/8 31/35/8
f  31/35/8 12/12/3 11/11/3
f  50/60/16 51/61/16 52/62/16
f  52/62/16 53/63/16 50/60/16
f  54/64/17 21/23/6 24/26/6
f  24/26/6 2/65/17 54/64/17
f  50/66/18 41/46/12 11/49/12
f  50/66/18 11/49/12 10/67/18
f  10/67/18 51/68/18 50/66/18
f  43/50/13 47/54/13 7/7/2
f  7/7/2 36/40/10 43/50/13
f  4/15/4 50/60/16 53/63/16
f  53/63/16 14/16/4 4/15/4
f  55/69/19 54/64/17 2/65/17
f  2/65/17 1/70/19 55/69/19
f  3/3/1 41/46/12 50/66/18
f  50/66/18 4/4/1 3/3/1
f  25/58/20 23/71/20 22/72/20
f  22/72/20 49/59/20 25/58/20
f  27/31/7 26/30/7 40/55/14
f  40/55/14 42/47/12 27/31/7
f  27/31/7 42/47/12 41/46/12
f  41/46/12 3/3/1 27/31/7
f  29/33/21 48/73/21 56/74/21
f  56/74/21 30/34/21 29/33/21
f  51/61/22 10/75/22 13/76/22
f  13/76/22 52/62/22 51/61/22
f  1/70/23 5/77/23 15/78/23
f  15/78/23 55/69/23 1/70/23
f  48/79/24 40/45/11 39/44/11
f  39/44/11 56/80/24 48/79/24
f  46/53/25 21/81/25 54/82/25
f  54/82/25 17/19/25 46/53/25
f  31/83/26 6/6/26 9/9/26
f  9/9/26 12/84/26 31/83/26
f  38/85/27 43/50/27 36/40/27
f  36/40/27 39/86/27 38/85/27
f  53/87/28 32/36/28 20/22/28
f  20/22/28 14/88/28 53/87/28
f  22/89/29 45/52/29 44/51/29
f  44/51/29 49/90/29 22/89/29
f  56/91/30 35/39/30 37/41/30
f  37/41/30 30/92/30 56/91/30
f  13/93/31 34/38/31 33/37/31
f  33/37/31 52/94/31 13/93/31
f  15/95/32 19/21/32 18/20/32
f  18/20/32 55/96/32 15/95/32
f  49/90/33 44/51/33 43/50/27
f  43/50/27 38/85/27 49/90/33
f  21/81/25 46/53/25 45/52/34
f  45/52/34 22/89/34 21/81/25
f  39/86/27 36/40/27 35/39/35
f  35/39/35 56/91/35 39/86/27
f  30/92/36 37/41/36 6/6/26
f  6/6/26 31/83/26 30/92/36
f  12/84/26 9/9/26 34/38/37
f  34/38/37 13/93/37 12/84/26
f  52/62/38 33/97/38 32/98/38
f  32/98/38 53/63/38 52/62/38
f  14/88/28 20/22/28 19/21/39
f  19/21/39 15/95/39 14/88/28
f  55/96/40 18/20/40 17/19/25
f  17/19/25 54/82/25 55/96/40
f  47/54/13 46/53/13 17/19/5
f  17/19/5 16/18/5 47/54/13

# Mesh 'Cube_Cube' with 2 faces
g Cube_Cube
usemtl Light
f  47/54/10 16/18/10 8/8/10
f  8/8/10 7/7/10 47/54/10

